<svg xmlns="http://www.w3.org/2000/svg" width="83" height="83" viewBox="0 0 83 83"><g><g opacity=".5"><path fill="#f5c506" d="M2.174 22.287l18.78-.713-.125-18.795 8.018 7.669.127 18.794-18.781.713zm12.17 11.638l18.78-.713L33 14.418l8.019 7.668.126 18.795-18.781.712zm39.808 38.069l-.127-18.795 18.782-.713 8.02 7.669-18.782.713.126 18.794zm-12.17-11.639l-.127-18.794 18.782-.713 8.019 7.668-18.781.714L50 68.024zm18.452-58.46l.713 18.78 18.794-.126-7.668 8.02-18.795.125-.712-18.78zm-11.638 12.17l.713 18.78 18.794-.126-7.668 8.02-18.795.126-.713-18.782zM10.727 53.873l18.794-.127.713 18.782-7.668 8.019-.714-18.781-18.793.126zm11.638-12.17l18.794-.127.714 18.782-7.669 8.019-.714-18.782-18.793.127z"/></g><g><path fill="#f5c506" d="M-.008 54.996L13.072 41.5-.008 28.004h11.095L24.17 41.5 11.087 54.996zm16.84 0L29.911 41.5l-13.08-13.496h11.095L41.007 41.5l-13.08 13.496zm55.08 0L58.833 41.5l13.08-13.496h11.096L69.928 41.5l13.08 13.496zm-16.839 0L41.993 41.5l13.08-13.496H66.17L53.089 41.5l13.08 13.496zM28.004-.008L41.5 13.072 54.996-.008v11.095L41.499 24.168l-13.495-13.08zm0 16.84L41.5 29.911l13.497-13.08v11.095l-13.497 13.08-13.495-13.08zm0 55.08L41.5 58.833l13.497 13.08v11.096l-13.497-13.08-13.495 13.08zm0-16.839L41.5 41.992l13.497 13.081v11.095l-13.497-13.08-13.495 13.08z"/></g></g></svg>