<svg xmlns="http://www.w3.org/2000/svg" viewBox="0 0 16 15" width="16" height="15">
	<style>
		tspan { white-space:pre }
		.shp0 { fill: #f5c506 } 
	</style>
	<g id="bnner+header">
		<g id="player">
			<path id="Shape 9" class="shp0" d="M10.37 7.98L10.37 7.02L16 7.02L16 7.98L10.37 7.98ZM10.18 5.18L15.26 2.75L15.68 3.61L10.6 6.04L10.18 5.18ZM9.75 3.04L13.24 0L13.76 0.59L10.27 3.63L9.75 3.04ZM4.26 10.35L4.26 7.79L4.26 7.2L4.26 4.65C5.71 3.33 7.47 2.65 8.68 1.18L8.68 7.2L8.68 7.79L8.68 13.82C7.47 12.34 5.71 11.67 4.26 10.35ZM1 4.66L3.91 4.66L3.91 10.3L1 10.3L1 4.66ZM13.76 14.41L13.24 15L9.75 11.96L10.27 11.36L13.76 14.41ZM10.41 9.01L15.48 11.43L15.07 12.3L9.99 9.87L10.41 9.01Z" />
		</g>
	</g>
</svg>